HIERARCHY
ROOT reference
{
  OFFSET -65.3212 -1.93545 -120.338
  CHANNELS 6 Xposition Yposition Zposition Zrotation Xrotation Yrotation
  JOINT Hips
  {
    OFFSET 0 78.7191 0
    CHANNELS 6 Xposition Yposition Zposition Zrotation Xrotation Yrotation
    JOINT Chest
    {
      OFFSET 0 8.7983 -4.7612
      CHANNELS 6 Xposition Yposition Zposition Zrotation Xrotation Yrotation
      JOINT Chest2
      {
        OFFSET 0 8.0291 0.4195
        CHANNELS 6 Xposition Yposition Zposition Zrotation Xrotation Yrotation
        JOINT Chest3
        {
          OFFSET 0 9.9351 -2.2114
          CHANNELS 6 Xposition Yposition Zposition Zrotation Xrotation Yrotation
          JOINT Neck
          {
            OFFSET 0 22.3885 -0.4656
            CHANNELS 6 Xposition Yposition Zposition Zrotation Xrotation Yrotation
            JOINT Head
            {
              OFFSET -0.0001 12.643 3.4389
              CHANNELS 6 Xposition Yposition Zposition Zrotation Xrotation Yrotation
              End Site
              {
                OFFSET 0.0001 17.6655 0.5274
              }
            }
          }
          JOINT LeftCollar
          {
            OFFSET 2.2603 21.606 7.4023
            CHANNELS 6 Xposition Yposition Zposition Zrotation Xrotation Yrotation
            JOINT LeftShoulder
            {
              OFFSET 13.5163 -1.1332 -5.0146
              CHANNELS 6 Xposition Yposition Zposition Zrotation Xrotation Yrotation
              JOINT LeftElbow
              {
                OFFSET -0.0995 -28.05 -0.2431
                CHANNELS 6 Xposition Yposition Zposition Zrotation Xrotation Yrotation
                JOINT LeftWrist
                {
                  OFFSET 0.0679 -23.3996 -0.1402
                  CHANNELS 6 Xposition Yposition Zposition Zrotation Xrotation Yrotation
                  JOINT LeftFinger1
                  {
                    OFFSET 0.7932 -9.069 2.5189
                    CHANNELS 6 Xposition Yposition Zposition Zrotation Xrotation Yrotation
                    JOINT LeftFinger11
                    {
                      OFFSET -0.8272 -3.3923 0.5977
                      CHANNELS 6 Xposition Yposition Zposition Zrotation Xrotation Yrotation
                      JOINT LeftFinger12
                      {
                        OFFSET -0.5649 -2.3158 0.4082
                        CHANNELS 6 Xposition Yposition Zposition Zrotation Xrotation Yrotation
                        End Site
                        {
                          OFFSET -0.4919 -1.6479 0.2673
                        }
                      }
                    }
                  }
                  JOINT LeftFinger2
                  {
                    OFFSET 0.9159 -9.2044 0.2193
                    CHANNELS 6 Xposition Yposition Zposition Zrotation Xrotation Yrotation
                    JOINT LeftFinger21
                    {
                      OFFSET 0.0117 -4.1944 -0.0248
                      CHANNELS 6 Xposition Yposition Zposition Zrotation Xrotation Yrotation
                      JOINT LeftFinger22
                      {
                        OFFSET 0.0071 -2.3249 -0.0142
                        CHANNELS 6 Xposition Yposition Zposition Zrotation Xrotation Yrotation
                        End Site
                        {
                          OFFSET -0.1475 -2.0882 0.0028
                        }
                      }
                    }
                  }
                  JOINT LeftFinger3
                  {
                    OFFSET 0.6113 -8.7231 -2.0637
                    CHANNELS 6 Xposition Yposition Zposition Zrotation Xrotation Yrotation
                    JOINT LeftFinger31
                    {
                      OFFSET -0.1927 -3.8059 -0.2383
                      CHANNELS 6 Xposition Yposition Zposition Zrotation Xrotation Yrotation
                      JOINT LeftFinger32
                      {
                        OFFSET -0.1091 -2.1688 -0.1362
                        CHANNELS 6 Xposition Yposition Zposition Zrotation Xrotation Yrotation
                        End Site
                        {
                          OFFSET -0.2358 -1.9176 -0.0906
                        }
                      }
                    }
                  }
                  JOINT LeftFinger4
                  {
                    OFFSET -0.6151 -8.0947 -3.5641
                    CHANNELS 6 Xposition Yposition Zposition Zrotation Xrotation Yrotation
                    JOINT LeftFinger41
                    {
                      OFFSET -0.4882 -2.341 -0.6462
                      CHANNELS 6 Xposition Yposition Zposition Zrotation Xrotation Yrotation
                      JOINT LeftFinger42
                      {
                        OFFSET -0.3575 -1.7167 -0.4742
                        CHANNELS 6 Xposition Yposition Zposition Zrotation Xrotation Yrotation
                        End Site
                        {
                          OFFSET -0.4187 -1.5237 -0.3496
                        }
                      }
                    }
                  }
                  JOINT LeftFinger0
                  {
                    OFFSET -1.42 -1.8761 1.4223
                    CHANNELS 6 Xposition Yposition Zposition Zrotation Xrotation Yrotation
                    JOINT LeftFinger01
                    {
                      OFFSET -1.1471 -3.4929 2.6334
                      CHANNELS 6 Xposition Yposition Zposition Zrotation Xrotation Yrotation
                      JOINT LeftFinger02
                      {
                        OFFSET -0.823 -2.3 1.6571
                        CHANNELS 6 Xposition Yposition Zposition Zrotation Xrotation Yrotation
                        End Site
                        {
                          OFFSET -0.5822 -1.6914 1.1582
                        }
                      }
                    }
                  }
                }
              }
            }
          }
          JOINT RightCollar
          {
            OFFSET -2.2603 21.606 7.4023
            CHANNELS 6 Xposition Yposition Zposition Zrotation Xrotation Yrotation
            JOINT RightShoulder
            {
              OFFSET -13.5187 -1.1334 -5.0155
              CHANNELS 6 Xposition Yposition Zposition Zrotation Xrotation Yrotation
              JOINT RightElbow
              {
                OFFSET 0.0994 -28.0499 -0.2431
                CHANNELS 6 Xposition Yposition Zposition Zrotation Xrotation Yrotation
                JOINT RightWrist
                {
                  OFFSET -0.0679 -23.3996 -0.1402
                  CHANNELS 6 Xposition Yposition Zposition Zrotation Xrotation Yrotation
                  JOINT RightFinger1
                  {
                    OFFSET -0.7932 -9.0691 2.5189
                    CHANNELS 6 Xposition Yposition Zposition Zrotation Xrotation Yrotation
                    JOINT RightFinger11
                    {
                      OFFSET 0.8272 -3.3923 0.5977
                      CHANNELS 6 Xposition Yposition Zposition Zrotation Xrotation Yrotation
                      JOINT RightFinger12
                      {
                        OFFSET 0.565 -2.3158 0.4082
                        CHANNELS 6 Xposition Yposition Zposition Zrotation Xrotation Yrotation
                        End Site
                        {
                          OFFSET 0.4919 -1.6479 0.2673
                        }
                      }
                    }
                  }
                  JOINT RightFinger2
                  {
                    OFFSET -0.916 -9.2044 0.2193
                    CHANNELS 6 Xposition Yposition Zposition Zrotation Xrotation Yrotation
                    JOINT RightFinger21
                    {
                      OFFSET -0.0117 -4.1944 -0.0248
                      CHANNELS 6 Xposition Yposition Zposition Zrotation Xrotation Yrotation
                      JOINT RightFinger22
                      {
                        OFFSET -0.0071 -2.3249 -0.0142
                        CHANNELS 6 Xposition Yposition Zposition Zrotation Xrotation Yrotation
                        End Site
                        {
                          OFFSET 0.1475 -2.0882 0.0028
                        }
                      }
                    }
                  }
                  JOINT RightFinger3
                  {
                    OFFSET -0.6113 -8.7231 -2.0637
                    CHANNELS 6 Xposition Yposition Zposition Zrotation Xrotation Yrotation
                    JOINT RightFinger31
                    {
                      OFFSET 0.1927 -3.8059 -0.2383
                      CHANNELS 6 Xposition Yposition Zposition Zrotation Xrotation Yrotation
                      JOINT RightFinger32
                      {
                        OFFSET 0.1091 -2.1688 -0.1362
                        CHANNELS 6 Xposition Yposition Zposition Zrotation Xrotation Yrotation
                        End Site
                        {
                          OFFSET 0.2358 -1.9176 -0.0906
                        }
                      }
                    }
                  }
                  JOINT RightFinger4
                  {
                    OFFSET 0.6151 -8.0947 -3.564
                    CHANNELS 6 Xposition Yposition Zposition Zrotation Xrotation Yrotation
                    JOINT RightFinger41
                    {
                      OFFSET 0.4882 -2.341 -0.6462
                      CHANNELS 6 Xposition Yposition Zposition Zrotation Xrotation Yrotation
                      JOINT RightFinger42
                      {
                        OFFSET 0.3574 -1.7166 -0.4742
                        CHANNELS 6 Xposition Yposition Zposition Zrotation Xrotation Yrotation
                        End Site
                        {
                          OFFSET 0.4187 -1.5237 -0.3496
                        }
                      }
                    }
                  }
                  JOINT RightFinger0
                  {
                    OFFSET 1.4199 -1.8761 1.4221
                    CHANNELS 6 Xposition Yposition Zposition Zrotation Xrotation Yrotation
                    JOINT RightFinger01
                    {
                      OFFSET 1.1472 -3.4929 2.6336
                      CHANNELS 6 Xposition Yposition Zposition Zrotation Xrotation Yrotation
                      JOINT RightFinger02
                      {
                        OFFSET 0.8229 -2.3 1.6571
                        CHANNELS 6 Xposition Yposition Zposition Zrotation Xrotation Yrotation
                        End Site
                        {
                          OFFSET 0.5822 -1.6914 1.1582
                        }
                      }
                    }
                  }
                }
              }
            }
          }
        }
      }
    }
    JOINT RightHip
    {
      OFFSET -9.412 3.9771 -0.7758
      CHANNELS 6 Xposition Yposition Zposition Zrotation Xrotation Yrotation
      JOINT RightKnee
      {
        OFFSET -0.7531 -40.938 0
        CHANNELS 6 Xposition Yposition Zposition Zrotation Xrotation Yrotation
        JOINT RightAnkle
        {
          OFFSET 0 -40.1986 0
          CHANNELS 6 Xposition Yposition Zposition Zrotation Xrotation Yrotation
          JOINT RightToe
          {
            OFFSET 0 -4.4182 9.239
            CHANNELS 6 Xposition Yposition Zposition Zrotation Xrotation Yrotation
            End Site
            {
              OFFSET 0 0 6.1981
            }
          }
        }
      }
    }
    JOINT LeftHip
    {
      OFFSET 9.4119 3.9773 -0.7758
      CHANNELS 6 Xposition Yposition Zposition Zrotation Xrotation Yrotation
      JOINT LeftKnee
      {
        OFFSET 0.7532 -40.9383 0
        CHANNELS 6 Xposition Yposition Zposition Zrotation Xrotation Yrotation
        JOINT LeftAnkle
        {
          OFFSET 0 -40.1986 0
          CHANNELS 6 Xposition Yposition Zposition Zrotation Xrotation Yrotation
          JOINT LeftToe
          {
            OFFSET 0 -4.4182 9.239
            CHANNELS 6 Xposition Yposition Zposition Zrotation Xrotation Yrotation
            End Site
            {
              OFFSET 0 0 6.1981
            }
          }
        }
      }
    }
  }
}
MOTION
Frames:	4
Frame Time:	0.0333333
0.803872 -30.1361 1.48111 0 0 -0 4.77396e-015 78.7191 0 -3.33877 6.55383 -4.32421 4.44089e-016 8.7983 -4.7612 2.248 6.88941 -0.38008 5.55112e-017 8.0291 0.4195 4.59266 13.7582 -1.04583 0 9.9351 -2.2114 4.59267 13.7582 -1.04583 0 22.3885 -0.4656 -10.8505 -7.95064 -5.4307 -0.0001 12.643 3.4389 -7.19248 -3.32212 -3.34131 2.2603 21.606 7.4023 8.65825 -2.65975 -7.95946 13.5163 -1.1332 -5.0146 32.2136 -41.4142 22.3477 -0.0995 -28.05 -0.2431 -156.764 -40.714 -111.324 0.0679 -23.3996 -0.1402 -24.3872 -11.2671 49.1353 0.7932 -9.069 2.5189 4.74066 6.21975 -17.085 -0.8272 -3.3923 0.5977 -0.393693 -4.48687 -2.07449 -0.5649 -2.3158 0.4082 4.88009 -3.01338 0.389807 0.9159 -9.2044 0.2193 9.48628 -0.58031 -8.80786 0.0117 -4.1944 -0.0248 -12.2697 7.74845 -0.380574 0.0071 -2.3249 -0.0142 -13.0363 8.22996 -0.349166 0.6113 -8.7231 -2.0637 7.79323 3.66067 0.909753 -0.1927 -3.8059 -0.2383 -9.45443 6.58981 -0.714248 -0.1091 -2.1688 -0.1362 -11.1014 7.74353 -0.727043 -0.6151 -8.0947 -3.5641 11.8384 17.2812 1.54493 -0.4882 -2.341 -0.6462 -8.80455 6.0677 -1.00402 -0.3575 -1.7167 -0.4742 -13.8191 9.56568 -1.15675 -1.42 -1.8761 1.4223 -7.5519 6.16808 1.51427 -1.1471 -3.4929 2.6334 4.61884 5.962 -1.49422 -0.823 -2.3 1.6571 10.0017 12.3871 -3.74164 -2.2603 21.606 7.4023 -16.4616 -0.0377129 11.1132 -13.5187 -1.1334 -5.0155 -39.2726 41.6575 -38.9128 0.0994 -28.0499 -0.2431 153.227 -41.9781 106.71 -0.0679 -23.3996 -0.1402 -23.4031 -41.2522 56.1522 -0.7932 -9.0691 2.5189 29.9033 15.0791 7.54874 0.8272 -3.3923 0.5977 17.7566 5.90631 -1.21031 0.565 -2.3158 0.4082 23.8054 7.77458 -2.02797 -0.916 -9.2044 0.2193 15.4016 5.5705 7.06147 -0.0117 -4.1944 -0.0248 30.0687 9.86984 -1.92835 -0.0071 -2.3249 -0.0142 5.83195 1.98776 0.0376508 -0.6113 -8.7231 -2.0637 15.2704 13.4082 -2.15696 0.1927 -3.8059 -0.2383 26.7646 10.2255 -0.905735 0.1091 -2.1688 -0.1362 4.02142 1.5571 0.172389 0.6151 -8.0947 -3.564 15.9397 26.4314 -7.20308 0.4882 -2.341 -0.6462 25.9974 9.8288 -0.0285963 0.3574 -1.7166 -0.4742 7.12869 2.69187 0.439492 1.4199 -1.8761 1.4221 9.11158 18.3036 -19.7855 1.1472 -3.4929 2.6336 -4.34907 9.26976 3.30172 0.8229 -2.3 1.6571 -8.3025 16.4189 6.52105 -9.412 3.9771 -0.7758 19.6535 -79.5049 18.0618 -0.7531 -40.938 1.42109e-014 118.59 72.6082 -114.46 8.88179e-016 -40.1986 3.55271e-015 -9.25519 -16.915 -12.296 8.88179e-016 -4.4182 9.239 0.837519 5.66697 -0.367387 9.4119 3.9773 -0.7758 -48.2263 -76.865 -60.7455 0.7532 -40.9383 7.10543e-015 -166.189 75.0494 176.363 0 -40.1986 3.55271e-015 -8.80467 -6.3731 0.677385 -1.77636e-015 -4.4182 9.239 0.00382509 -0.0344449 3.64675e-005 
0.803959 -30.1361 1.48091 0 0 -0 4.77396e-015 78.7191 0 -3.33766 6.55776 -4.32222 0 8.7983 -4.7612 2.24871 6.88693 -0.376891 -1.66533e-016 8.0291 0.4195 4.59365 13.7533 -1.03936 0 9.9351 -2.2114 4.59365 13.7533 -1.03936 0 22.3885 -0.4656 -10.8441 -7.9686 -5.43077 -0.0001 12.643 3.4389 -7.18471 -3.33911 -3.34442 2.2603 21.606 7.4023 8.65901 -2.65916 -7.9581 13.5163 -1.1332 -5.0146 32.262 -41.3792 22.4115 -0.0995 -28.05 -0.2431 -156.836 -40.7474 -111.423 0.0679 -23.3996 -0.1402 -24.3872 -11.2671 49.1353 0.7932 -9.069 2.5189 4.74065 6.21974 -17.085 -0.8272 -3.3923 0.5977 -0.393624 -4.48664 -2.07433 -0.5649 -2.3158 0.4082 4.8787 -3.01251 0.389651 0.9159 -9.2044 0.2193 9.48631 -0.580291 -8.80784 0.0117 -4.1944 -0.0248 -12.2698 7.74842 -0.380591 0.0071 -2.3249 -0.0142 -13.0363 8.22995 -0.349175 0.6113 -8.7231 -2.0637 7.79321 3.66067 0.90975 -0.1927 -3.8059 -0.2383 -9.45444 6.58979 -0.714239 -0.1091 -2.1688 -0.1362 -11.1014 7.74354 -0.727034 -0.6151 -8.0947 -3.5641 11.8384 17.2812 1.54494 -0.4882 -2.341 -0.6462 -8.80456 6.06769 -1.004 -0.3575 -1.7167 -0.4742 -13.8191 9.56566 -1.15676 -1.42 -1.8761 1.4223 -7.55192 6.16808 1.51428 -1.1471 -3.4929 2.6334 4.61884 5.96198 -1.49422 -0.823 -2.3 1.6571 10.0017 12.3871 -3.7416 -2.2603 21.606 7.4023 -16.4617 -0.0377342 11.1132 -13.5187 -1.1334 -5.0155 -39.2514 41.6821 -38.9236 0.0994 -28.0499 -0.2431 153.238 -41.9743 106.721 -0.0679 -23.3996 -0.1402 -23.392 -41.251 56.1619 -0.7932 -9.0691 2.5189 29.9033 15.0791 7.54875 0.827201 -3.3923 0.5977 17.7566 5.9063 -1.2103 0.565 -2.3158 0.4082 23.8054 7.77458 -2.02796 -0.916001 -9.2044 0.2193 15.4015 5.57049 7.06148 -0.0117 -4.1944 -0.0248 30.0687 9.86986 -1.92835 -0.00710001 -2.3249 -0.0142 5.83196 1.98775 0.0376502 -0.6113 -8.7231 -2.0637 15.2703 13.4082 -2.15694 0.1927 -3.8059 -0.2383 26.7646 10.2255 -0.905736 0.1091 -2.1688 -0.1362 4.0214 1.55711 0.172385 0.6151 -8.0947 -3.564 15.9397 26.4314 -7.20306 0.4882 -2.341 -0.6462 25.9973 9.82879 -0.0285878 0.3574 -1.7166 -0.4742 7.12871 2.69187 0.439483 1.4199 -1.8761 1.4221 9.11161 18.3035 -19.7855 1.1472 -3.4929 2.6336 -4.34907 9.26976 3.30173 0.8229 -2.3 1.6571 -8.3025 16.4189 6.52106 -9.412 3.9771 -0.7758 19.6209 -79.497 18.0303 -0.7531 -40.938 -7.10543e-015 118.557 72.6145 -114.424 8.88178e-016 -40.1986 3.55271e-015 -9.25444 -16.9159 -12.2964 8.88178e-016 -4.4182 9.239 0.837524 5.66697 -0.367387 9.4119 3.9773 -0.7758 -48.242 -76.8673 -60.7612 0.7532 -40.9383 0 -166.187 75.0503 176.36 0 -40.1986 -3.55271e-015 -8.80106 -6.37188 0.67616 0 -4.4182 9.239 0.0038199 -0.034443 4.4595e-005 
0.805122 -30.1361 1.48061 0 0 -0 4.77396e-015 78.7191 0 -3.33636 6.56243 -4.31704 0 8.7983 -4.7612 2.25103 6.88292 -0.368884 2.77556e-017 8.0291 0.4195 4.59725 13.7456 -1.02328 0 9.9351 -2.2114 4.59726 13.7457 -1.02329 -1.77636e-015 22.3885 -0.4656 -10.8376 -7.98479 -5.43054 -0.0001 12.643 3.4389 -7.17692 -3.35445 -3.34703 2.2603 21.606 7.4023 8.66107 -2.65745 -7.95446 13.5163 -1.1332 -5.0146 32.3477 -41.3576 22.486 -0.0995 -28.05 -0.2431 -156.88 -40.7686 -111.486 0.0679 -23.3996 -0.1402 -24.3872 -11.2671 49.1353 0.7932 -9.069 2.5189 4.74065 6.21974 -17.085 -0.8272 -3.3923 0.5977 -0.393592 -4.48638 -2.07418 -0.5649 -2.3158 0.4082 4.87729 -3.01167 0.389506 0.9159 -9.2044 0.2193 9.4863 -0.58029 -8.80786 0.0117 -4.1944 -0.0248 -12.2698 7.74843 -0.380556 0.0071 -2.3249 -0.0142 -13.0363 8.22998 -0.349168 0.6113 -8.7231 -2.0637 7.79322 3.66067 0.909765 -0.1927 -3.8059 -0.2383 -9.45444 6.58981 -0.714234 -0.1091 -2.1688 -0.1362 -11.1014 7.74357 -0.727028 -0.6151 -8.0947 -3.5641 11.8384 17.2812 1.54493 -0.4882 -2.341 -0.6462 -8.80454 6.0677 -1.00399 -0.3575 -1.7167 -0.4742 -13.8191 9.56567 -1.15674 -1.42 -1.8761 1.4223 -7.55191 6.16808 1.51426 -1.1471 -3.4929 2.6334 4.61886 5.96201 -1.49423 -0.823 -2.3 1.6571 10.0017 12.3871 -3.74162 -2.2603 21.606 7.4023 -16.4616 -0.0377232 11.1132 -13.5187 -1.1334 -5.0155 -39.2082 41.7456 -38.9491 0.0994 -28.0499 -0.2431 153.267 -41.9617 106.749 -0.0679 -23.3996 -0.1402 -23.3773 -41.2497 56.1766 -0.7932 -9.0691 2.5189 29.9033 15.0791 7.54874 0.8272 -3.3923 0.5977 17.7566 5.9063 -1.21031 0.565 -2.3158 0.4082 23.8054 7.77457 -2.02794 -0.916 -9.2044 0.2193 15.4016 5.57048 7.06149 -0.0117 -4.1944 -0.0248 30.0687 9.86986 -1.92834 -0.0071 -2.3249 -0.0142 5.83196 1.98774 0.0376535 -0.6113 -8.7231 -2.0637 15.2703 13.4082 -2.15695 0.1927 -3.8059 -0.2383 26.7646 10.2255 -0.905697 0.1091 -2.1688 -0.1362 4.02142 1.5571 0.172375 0.6151 -8.0947 -3.564 15.9397 26.4314 -7.20307 0.4882 -2.341 -0.6462 25.9973 9.82879 -0.02859 0.3574 -1.7166 -0.4742 7.12869 2.69187 0.439475 1.4199 -1.8761 1.4221 9.11163 18.3035 -19.7855 1.1472 -3.4929 2.6336 -4.34908 9.26975 3.30172 0.8229 -2.3 1.6571 -8.3025 16.4189 6.52106 -9.412 3.9771 -0.7758 19.73 -79.5107 18.1444 -0.7531 -40.938 -7.10543e-015 118.589 72.6085 -114.461 -4.44089e-016 -40.1986 0 -9.25455 -16.9165 -12.2973 8.88179e-016 -4.4182 9.239 0.837523 5.66699 -0.367379 9.4119 3.9773 -0.7758 -48.2705 -76.8683 -60.7875 0.7532 -40.9383 -7.10543e-015 -166.185 75.0512 176.358 0 -40.1986 -3.55271e-015 -8.79674 -6.37039 0.675395 -1.77636e-015 -4.4182 9.239 0.00383042 -0.034447 4.54268e-005 
0.803837 -30.1362 1.48035 0 0 -0 4.77396e-015 78.7191 0 -3.33493 6.56757 -4.30951 -4.44089e-016 8.7983 -4.7612 2.25454 6.87786 -0.357286 2.77556e-016 8.0291 0.4195 4.60282 13.7359 -1.00003 8.88178e-016 9.9351 -2.2114 4.60284 13.7359 -1.00003 -1.77636e-015 22.3885 -0.4656 -10.8312 -7.99923 -5.43009 -0.0001 12.643 3.4389 -7.16931 -3.36811 -3.3492 2.2603 21.606 7.4023 8.66412 -2.65489 -7.94909 13.5163 -1.1332 -5.0146 32.4613 -41.3469 22.5676 -0.0995 -28.05 -0.2431 -156.903 -40.7795 -111.519 0.0679 -23.3996 -0.1402 -24.3872 -11.2671 49.1353 0.7932 -9.069 2.5189 4.74065 6.21974 -17.085 -0.8272 -3.3923 0.5977 -0.393626 -4.48612 -2.07405 -0.5649 -2.3158 0.4082 4.87587 -3.01081 0.389323 0.9159 -9.2044 0.2193 9.48628 -0.580289 -8.80785 0.0117 -4.1944 -0.0248 -12.2698 7.74845 -0.380559 0.0071 -2.3249 -0.0142 -13.0363 8.22998 -0.349169 0.6113 -8.7231 -2.0637 7.79321 3.66069 0.909784 -0.1927 -3.8059 -0.2383 -9.45444 6.58982 -0.714239 -0.1091 -2.1688 -0.1362 -11.1014 7.74356 -0.72703 -0.6151 -8.0947 -3.5641 11.8384 17.2813 1.54496 -0.4882 -2.341 -0.6462 -8.80456 6.0677 -1.00399 -0.3575 -1.7167 -0.4742 -13.8191 9.56569 -1.15677 -1.42 -1.8761 1.4223 -7.55189 6.16806 1.51428 -1.1471 -3.4929 2.6334 4.61884 5.96201 -1.49421 -0.823 -2.3 1.6571 10.0017 12.3871 -3.74162 -2.2603 21.606 7.4023 -16.4616 -0.037653 11.1132 -13.5187 -1.1334 -5.0155 -39.1485 41.8379 -38.9859 0.0994 -28.0499 -0.2431 153.309 -41.9425 106.788 -0.0679 -23.3996 -0.1402 -23.3595 -41.2487 56.1961 -0.7932 -9.0691 2.5189 29.9033 15.0791 7.54875 0.8272 -3.3923 0.5977 17.7567 5.90632 -1.21031 0.565 -2.3158 0.4082 23.8054 7.77457 -2.02793 -0.916 -9.2044 0.2193 15.4016 5.57051 7.06151 -0.0117 -4.1944 -0.0248 30.0687 9.86988 -1.92836 -0.0071 -2.3249 -0.0142 5.83197 1.98776 0.0376673 -0.6113 -8.7231 -2.0637 15.2704 13.4082 -2.15695 0.1927 -3.8059 -0.2383 26.7646 10.2255 -0.905698 0.1091 -2.1688 -0.1362 4.02143 1.55712 0.172386 0.6151 -8.0947 -3.564 15.9397 26.4314 -7.20305 0.4882 -2.341 -0.6462 25.9974 9.8288 -0.0285873 0.3574 -1.7166 -0.4742 7.12871 2.69187 0.439483 1.4199 -1.8761 1.4221 9.11162 18.3035 -19.7856 1.1472 -3.4929 2.6336 -4.3491 9.26976 3.30173 0.8229 -2.3 1.6571 -8.30251 16.4189 6.52108 -9.412 3.9771 -0.7758 19.5714 -79.5137 17.9839 -0.7531 -40.938 0 118.574 72.6122 -114.444 0 -40.1986 -7.10543e-015 -9.2499 -16.9193 -12.2981 8.88178e-016 -4.4182 9.239 0.837518 5.66698 -0.36738 9.4119 3.9773 -0.7758 -48.3019 -76.8705 -60.8176 0.7532 -40.9383 0 -166.184 75.0511 176.355 0 -40.1986 0 -8.79409 -6.36955 0.673536 0 -4.4182 9.239 0.00381549 -0.0344605 4.56802e-005 
